<svg width="319" height="490" viewBox="0 0 319 490" fill="none" xmlns="http://www.w3.org/2000/svg">
<path d="M159 66L291.502 244.5H26.4981L159 66Z" stroke="white" stroke-width="6"/>
<path d="M159.5 293L124.426 246.5L194.574 246.5L159.5 293Z" fill="white"/>
<path fill-rule="evenodd" clip-rule="evenodd" d="M157.653 115.571L159.5 113L161.347 115.571L236 219.5L205.831 261.5L203.984 258.929L232.306 219.5L159.5 118.142L86.6937 219.5L115.016 258.929L113.169 261.5L83 219.5L157.653 115.571Z" fill="white"/>
<path fill-rule="evenodd" clip-rule="evenodd" d="M161.363 363.972L159.5 366.5L157.637 363.972L81 260L89.8451 248L91.7085 250.528L84.7269 260L159.5 361.444L234.273 260L227.291 250.528L229.155 248L238 260L161.363 363.972Z" fill="white"/>
<circle cx="159.6" cy="211.6" r="30.1" fill="white" stroke="white"/>
<circle cx="159" cy="43" r="5.5" fill="white" stroke="white"/>
<circle cx="309.5" cy="220.5" r="7.5" stroke="white" stroke-width="2"/>
<circle cx="304.5" cy="204.5" r="3" stroke="white"/>
<circle cx="14.5" cy="312.5" r="6" fill="white" stroke="white"/>
<circle cx="159.5" cy="464.5" r="5" fill="white" stroke="white"/>
<circle cx="221" cy="325" r="5.5" fill="white" stroke="white"/>
<circle cx="159" cy="453" r="17.5" stroke="white"/>
<circle cx="159" cy="383" r="18" fill="white"/>
<circle cx="159" cy="383" r="30.5" stroke="white"/>
<line y1="246" x2="319" y2="246" stroke="white" stroke-width="6"/>
<line x1="28" y1="267.5" x2="290" y2="267.5" stroke="white"/>
<line x1="49" y1="324" x2="209" y2="324" stroke="white" stroke-width="2"/>
<line x1="102" y1="382.5" x2="216" y2="382.5" stroke="white"/>
<line x1="159.5" y1="435" x2="159.5" y2="116" stroke="white"/>
<line x1="159.5" y1="490" x2="159.5" y2="460" stroke="white"/>
<line x1="158.5" y1="30" x2="158.5" y2="2.18557e-08" stroke="white"/>
<line x1="301.5" y1="281" x2="301.5" y2="221" stroke="white"/>
<line x1="14.5" y1="303" x2="14.5" y2="243" stroke="white"/>
</svg>
