<?xml version="1.0" encoding="UTF-8" standalone="no"?>
<!-- Created with Inkscape (http://www.inkscape.org/) -->

<svg
   width="37.041668mm"
   height="37.041668mm"
   viewBox="0 0 37.041668 37.041668"
   version="1.1"
   id="svg1"
   xml:space="preserve"
   inkscape:export-filename="..\website 2.0\images\about\icons\icon-diy.svg"
   inkscape:export-xdpi="96"
   inkscape:export-ydpi="96"
   inkscape:version="1.3.2 (091e20e, 2023-11-25, custom)"
   sodipodi:docname="icons.svg"
   xmlns:inkscape="http://www.inkscape.org/namespaces/inkscape"
   xmlns:sodipodi="http://sodipodi.sourceforge.net/DTD/sodipodi-0.dtd"
   xmlns="http://www.w3.org/2000/svg"
   xmlns:svg="http://www.w3.org/2000/svg"><sodipodi:namedview
     id="namedview1"
     pagecolor="#ffffff"
     bordercolor="#cccccc"
     borderopacity="1"
     inkscape:showpageshadow="0"
     inkscape:pageopacity="1"
     inkscape:pagecheckerboard="0"
     inkscape:deskcolor="#d1d1d1"
     inkscape:document-units="px"
     showguides="true"
     inkscape:zoom="5.6568543"
     inkscape:cx="336.67122"
     inkscape:cy="694.99758"
     inkscape:window-width="3840"
     inkscape:window-height="2054"
     inkscape:window-x="-11"
     inkscape:window-y="-11"
     inkscape:window-maximized="1"
     inkscape:current-layer="g38"><sodipodi:guide
       position="1.7834674,41.910675"
       orientation="1,0"
       id="guide16"
       inkscape:locked="false" /><sodipodi:guide
       position="34.270225,32.940633"
       orientation="1,0"
       id="guide17"
       inkscape:locked="false" /><sodipodi:guide
       position="-39.656675,28.189362"
       orientation="1,0"
       id="guide18"
       inkscape:locked="false" /><sodipodi:guide
       position="-7.6068556,26.844002"
       orientation="1,0"
       id="guide19"
       inkscape:locked="false" /></sodipodi:namedview><defs
     id="defs1" /><g
     inkscape:label="icon-ux-active"
     inkscape:groupmode="layer"
     id="g22"
     transform="translate(60.562971,-344.73896)"
     style="fill:#000000;fill-opacity:1"
     inkscape:export-filename="icon-ux-active.svg"
     inkscape:export-xdpi="96"
     inkscape:export-ydpi="96"><rect
       style="fill:none;fill-opacity:1;fill-rule:evenodd;stroke-width:5.08;stroke-linecap:round;stroke-linejoin:round"
       id="rect22"
       width="37.041668"
       height="37.041668"
       x="-60.803818"
       y="-348.84"
       transform="scale(1,-1)" /></g><g
     inkscape:label="icon-code-active"
     inkscape:groupmode="layer"
     id="g33"
     transform="translate(60.662414,-311.79833)"
     style="fill:#000000;fill-opacity:1"
     inkscape:export-filename="icon-code-active.svg"
     inkscape:export-xdpi="96"
     inkscape:export-ydpi="96"><rect
       style="fill:none;fill-opacity:1;fill-rule:evenodd;stroke-width:5.08;stroke-linecap:round;stroke-linejoin:round"
       id="rect33"
       width="37.041668"
       height="37.041668"
       x="-60.662415"
       y="-348.84"
       transform="scale(1,-1)" /><path
       style="font-size:64px;line-height:1.25;font-family:Fruktur;-inkscape-font-specification:Fruktur;text-align:center;letter-spacing:0px;word-spacing:0px;text-anchor:middle;white-space:pre;fill:#2e3141;fill-opacity:1;stroke-width:0.784826"
       d="m -50.46603,337.17006 -6.610333,-3.98526 c -0.113971,-0.14361 -0.220344,-0.38296 -0.31912,-0.71806 -0.09877,-0.3351 -0.178554,-0.71009 -0.239339,-1.12497 -0.06079,-0.42286 -0.102576,-0.83375 -0.125369,-1.23268 -0.01519,-0.39892 4e-6,-0.72604 0.04559,-0.98136 l 6.735701,-5.08629 c 0.212747,0.0878 0.452087,0.30319 0.718019,0.64625 0.273532,0.34308 0.52047,0.71408 0.740814,1.11301 0.227942,0.39095 0.372306,0.72206 0.43309,0.99332 l -4.615836,4.27249 4.855176,3.69804 c -0.09877,0.43881 -0.31532,0.90157 -0.649636,1.38825 -0.334316,0.4867 -0.657235,0.82578 -0.968757,1.01726 z m 8.100159,4.56747 c -0.585053,0.016 -1.11312,-0.0479 -1.584201,-0.19148 -0.463483,-0.13564 -0.91177,-0.36302 -1.344861,-0.68217 l 3.100018,-21.85311 c 0.281129,-0.10374 0.67623,-0.13563 1.185302,-0.0958 0.509071,0.0319 1.021942,0.1157 1.538612,0.25132 0.516669,0.13564 0.923167,0.30319 1.219492,0.50265 z m 9.067314,-4.56747 c -0.205148,-0.0958 -0.444488,-0.31116 -0.718019,-0.64626 -0.273531,-0.34307 -0.520469,-0.71407 -0.740813,-1.113 -0.220345,-0.39893 -0.364708,-0.73004 -0.433091,-0.99332 l 4.615836,-4.27249 -4.855176,-3.69804 c 0.09878,-0.44679 0.315321,-0.90954 0.649637,-1.38825 0.341913,-0.48669 0.664832,-0.82578 0.968755,-1.01726 l 6.610334,3.98526 c 0.113971,0.14362 0.220344,0.38297 0.319119,0.71806 0.09878,0.3351 0.178555,0.71408 0.23934,1.13694 0.06079,0.41489 0.09878,0.82179 0.113971,1.22071 0.02278,0.39893 0.01139,0.72605 -0.03417,0.98136 z"
       id="text31-5"
       aria-label="&lt;/&gt;"
       sodipodi:nodetypes="ccscccccccccsccccccsccccsccccccscccc" /></g></svg>
