<?xml version="1.0" encoding="UTF-8" standalone="no"?>
<!-- Created with Inkscape (http://www.inkscape.org/) -->

<svg
   width="37.041668mm"
   height="37.041668mm"
   viewBox="0 0 37.041668 37.041668"
   version="1.1"
   id="svg1"
   xml:space="preserve"
   inkscape:export-filename="icon-biker-active.svg"
   inkscape:export-xdpi="96"
   inkscape:export-ydpi="96"
   xmlns:inkscape="http://www.inkscape.org/namespaces/inkscape"
   xmlns:sodipodi="http://sodipodi.sourceforge.net/DTD/sodipodi-0.dtd"
   xmlns="http://www.w3.org/2000/svg"
   xmlns:svg="http://www.w3.org/2000/svg"><sodipodi:namedview
     id="namedview1"
     pagecolor="#ffffff"
     bordercolor="#cccccc"
     borderopacity="1"
     inkscape:showpageshadow="0"
     inkscape:pageopacity="1"
     inkscape:pagecheckerboard="0"
     inkscape:deskcolor="#d1d1d1"
     inkscape:document-units="px"
     showguides="true"><sodipodi:guide
       position="-120.43446,165.36151"
       orientation="1,0"
       id="guide16"
       inkscape:locked="false" /><sodipodi:guide
       position="-87.947704,156.39147"
       orientation="1,0"
       id="guide17"
       inkscape:locked="false" /><sodipodi:guide
       position="-161.8746,151.6402"
       orientation="1,0"
       id="guide18"
       inkscape:locked="false" /><sodipodi:guide
       position="-129.82479,150.29484"
       orientation="1,0"
       id="guide19"
       inkscape:locked="false" /></sodipodi:namedview><defs
     id="defs1" /><g
     inkscape:label="icon-biker-active"
     inkscape:groupmode="layer"
     id="g42"
     transform="translate(60.80382,-311.79834)"
     style="fill:#000000;fill-opacity:1"
     inkscape:export-filename="icon-artist.svg"
     inkscape:export-xdpi="96"
     inkscape:export-ydpi="96"><rect
       style="fill:none;fill-opacity:1;fill-rule:evenodd;stroke-width:5.08;stroke-linecap:round;stroke-linejoin:round"
       id="rect42"
       width="37.041668"
       height="37.041668"
       x="-60.803818"
       y="-348.84"
       transform="scale(1,-1)" /><path
       id="path42"
       style="fill:#2e3141;fill-opacity:1;stroke-width:0.00617845"
       d="m -38.609529,321.66932 c -0.02471,0.006 -0.22251,0.0617 -0.444934,0.1235 v 5.2e-4 c -0.222423,0.068 -0.457071,0.12926 -0.525032,0.14779 -0.259494,0.0556 -1.977321,0.53757 -2.02675,0.56844 -0.03089,0.0185 0.03091,0.12392 0.14211,0.23513 l 0.19172,0.19741 0.475423,-0.14211 c 0.259493,-0.0741 0.698116,-0.21013 0.969966,-0.29663 0.271852,-0.0865 0.53764,-0.16019 0.593246,-0.16019 0.148283,0 0.852416,0.53135 0.926558,0.70435 0.04943,0.10503 0.04985,0.26524 -0.0057,0.58652 -0.06178,0.36453 -0.10538,0.46386 -0.235128,0.55036 -0.135926,0.0865 -0.160288,0.0865 -0.185002,0.0124 -0.06178,-0.17918 -0.463641,-0.48823 -0.772562,-0.59324 -0.691987,-0.23479 -1.402309,-0.11728 -2.755388,0.45113 -1.544609,0.64874 -4.250682,2.06936 -4.331002,2.27325 -0.117389,0.30274 -0.636565,0.64281 -1.174088,0.77256 -0.568417,0.13592 -2.026826,0.10481 -2.749703,-0.062 -0.135926,-0.0309 -0.25326,-0.0553 -0.265617,-0.0553 -0.179176,-0.0124 -0.574336,-0.20429 -0.772046,-0.38964 -0.395421,-0.35836 -0.821584,-0.29014 -1.223181,0.20413 -0.105034,0.12975 -0.216616,0.22886 -0.241329,0.21032 -0.02471,-0.0124 -0.222487,-4.1e-4 -0.438733,0.0367 -2.131562,0.33364 -3.595677,1.30382 -4.306197,2.85461 -0.12357,0.25947 -0.321428,0.91464 -0.321428,1.04438 0,0.0247 0.142232,0.0491 0.315226,0.0491 h 0.315227 l -0.04961,0.25941 c -0.06178,0.346 -0.06188,1.29128 -0.0062,1.68052 0.271851,1.72997 1.662146,3.24391 3.410645,3.71347 0.518988,0.1421 1.563122,0.1732 2.100647,0.062 1.118297,-0.23478 2.113057,-0.8654 2.817399,-1.79834 0.271852,-0.35217 0.636365,-1.06256 0.698149,-1.37149 l 0.04961,-0.1974 h 0.70435 c 0.759947,0 0.735042,-0.0127 0.790649,0.35811 0.0556,0.39541 0.321332,0.82181 0.716752,1.14309 0.135926,0.11121 0.617698,0.34585 0.803052,0.38292 0.04943,0.0124 0.210352,0.0492 0.358635,0.0801 0.240957,0.0556 1.766704,0.0494 2.298051,-0.0124 0.117391,-0.0124 0.469819,-0.043 0.772562,-0.0615 0.308922,-0.0247 0.667126,-0.0496 0.803052,-0.0682 0.135926,-0.0124 0.469705,-0.0429 0.741557,-0.0677 0.87116,-0.068 1.359261,-0.30265 1.686719,-0.81545 0.179175,-0.27186 0.519103,-1.19263 0.593245,-1.59422 0.01236,-0.0989 0.08655,-0.45704 0.154513,-0.79685 0.117389,-0.59314 0.166604,-0.86528 0.222208,-1.2051 0.04943,-0.32745 0.14816,-0.92072 0.247014,-1.4397 0.04943,-0.29657 0.111173,-0.6423 0.129708,-0.77205 0.01853,-0.12357 0.04966,-0.31507 0.06201,-0.41393 0.01854,-0.10503 0.04345,-0.25353 0.05581,-0.34003 0.01853,-0.14211 0.129397,-0.82758 0.185002,-1.17357 0.06797,-0.4016 0.08644,-0.54996 0.123506,-0.86506 0.02471,-0.18536 0.04966,-0.34629 0.06201,-0.35864 0.0061,-0.006 0.401725,0.63028 0.877466,1.4211 l 0.858862,1.43971 -0.408244,0.49403 c -0.537523,0.64874 -0.988303,1.42151 -1.056266,1.81074 0,0.0247 -0.03113,0.0865 -0.06201,0.14211 -0.09886,0.19153 -0.222452,1.04386 -0.148311,1.04386 0.02471,0 0.117623,-0.0555 0.204122,-0.1173 l 0.166915,-0.11731 v 0.66094 c 0,0.7476 0.03681,1.00076 0.209806,1.5012 0.203889,0.59931 0.444838,1.02606 0.840259,1.52033 0.333636,0.42012 0.958081,0.90176 1.520321,1.18597 0.716699,0.36453 1.161098,0.45734 2.124935,0.45734 0.593129,0 0.834387,-0.0309 1.205094,-0.14211 1.105941,-0.33981 1.958271,-0.96408 2.588473,-1.89085 0.586951,-0.86496 0.822012,-1.71138 0.778763,-2.79879 -0.04325,-1.18008 -0.444857,-2.13122 -1.266589,-2.9962 -0.413956,-0.43868 -0.766228,-0.70481 -1.291394,-0.97048 -0.358351,-0.18535 -0.383098,-0.21008 -0.290422,-0.28422 0.105034,-0.0741 0.09277,-0.0861 -0.117305,-0.1788 -0.698163,-0.29039 -1.767053,-0.42026 -2.533179,-0.31523 -0.284209,0.0371 -1.007157,0.25353 -1.143083,0.34003 -0.06178,0.0433 -0.110884,0.0181 -0.191202,-0.10542 -1.044156,-1.64347 -1.27919,-2.06945 -1.192693,-2.15594 0.148283,-0.15447 0.339583,-0.63662 0.358118,-0.90847 0.01853,-0.30274 -0.129516,-0.82165 -0.358118,-1.24179 -0.148281,-0.27185 -0.210311,-0.32127 -0.488342,-0.42013 -0.624022,-0.21624 -1.198547,-0.24693 -1.526005,-0.0863 l -0.209806,0.10491 -0.247014,-0.24082 c -0.71052,-0.68579 -0.846618,-0.80975 -0.889868,-0.80356 z m -14.32109,7.66981 a 2.6573784,2.6558995 0 0 1 2.657202,2.65617 2.6573784,2.6558995 0 0 1 -2.657202,2.65565 2.6573784,2.6558995 0 0 1 -2.657202,-2.65565 2.6573784,2.6558995 0 0 1 2.657202,-2.65617 z m 21.186304,0.13178 a 2.6573784,2.6558995 0 0 1 2.657719,2.65565 2.6573784,2.6558995 0 0 1 -2.657719,2.65617 2.6573784,2.6558995 0 0 1 -2.657202,-2.65617 2.6573784,2.6558995 0 0 1 2.657202,-2.65565 z" /></g></svg>
