<?xml version="1.0" encoding="UTF-8" standalone="no"?>
<!-- Created with Inkscape (http://www.inkscape.org/) -->

<svg
   width="37.041668mm"
   height="37.041668mm"
   viewBox="0 0 37.041668 37.041668"
   version="1.1"
   id="svg1"
   xml:space="preserve"
   inkscape:export-filename="..\website 2.0\images\about\icons\icon-diy.svg"
   inkscape:export-xdpi="96"
   inkscape:export-ydpi="96"
   inkscape:version="1.3.2 (091e20e, 2023-11-25, custom)"
   sodipodi:docname="icons.svg"
   xmlns:inkscape="http://www.inkscape.org/namespaces/inkscape"
   xmlns:sodipodi="http://sodipodi.sourceforge.net/DTD/sodipodi-0.dtd"
   xmlns="http://www.w3.org/2000/svg"
   xmlns:svg="http://www.w3.org/2000/svg"><sodipodi:namedview
     id="namedview1"
     pagecolor="#ffffff"
     bordercolor="#cccccc"
     borderopacity="1"
     inkscape:showpageshadow="0"
     inkscape:pageopacity="1"
     inkscape:pagecheckerboard="0"
     inkscape:deskcolor="#d1d1d1"
     inkscape:document-units="px"
     showguides="true"
     inkscape:zoom="5.6568543"
     inkscape:cx="336.67122"
     inkscape:cy="694.99758"
     inkscape:window-width="3840"
     inkscape:window-height="2054"
     inkscape:window-x="-11"
     inkscape:window-y="-11"
     inkscape:window-maximized="1"
     inkscape:current-layer="g38"><sodipodi:guide
       position="-120.43446,210.32098"
       orientation="1,0"
       id="guide16"
       inkscape:locked="false" /><sodipodi:guide
       position="-87.947704,201.35094"
       orientation="1,0"
       id="guide17"
       inkscape:locked="false" /><sodipodi:guide
       position="-161.8746,196.59967"
       orientation="1,0"
       id="guide18"
       inkscape:locked="false" /><sodipodi:guide
       position="-129.82479,195.25431"
       orientation="1,0"
       id="guide19"
       inkscape:locked="false" /></sodipodi:namedview><defs
     id="defs1" /><g
     inkscape:label="icon-diy"
     inkscape:groupmode="layer"
     id="g55"
     transform="translate(60.80382,-311.79832)"
     style="fill:#000000;fill-opacity:1"
     inkscape:export-filename="icon-biker.svg"
     inkscape:export-xdpi="96"
     inkscape:export-ydpi="96"><rect
       style="fill:none;fill-opacity:1;fill-rule:evenodd;stroke-width:5.08;stroke-linecap:round;stroke-linejoin:round"
       id="rect45"
       width="37.041668"
       height="37.041668"
       x="-60.803818"
       y="-348.84"
       transform="scale(1,-1)" /><path
       id="path45"
       style="fill:#ffffff;fill-opacity:1;stroke-width:0.369002"
       d="m -41.887955,315.05588 c -0.282523,0 -0.539078,0.17134 -0.642854,0.43512 l -0.864547,2.15232 c -0.220533,0.5535 -0.19358,1.17613 0.07596,1.70946 l 0.464571,0.91364 c 0.10234,0.19458 0.150896,0.40796 0.150896,0.62993 v 7.30653 h 2.075842 v -7.30653 c 0,-0.22196 0.04763,-0.43677 0.151412,-0.62993 l 0.464054,-0.91364 h -0.0016 c 0.26955,-0.53333 0.298457,-1.15596 0.07648,-1.70946 l -0.864547,-2.15232 c -0.1038,-0.26234 -0.358895,-0.43512 -0.642854,-0.43512 z m 8.019666,1.1591 c -0.03207,8.6e-4 -0.0647,0.007 -0.09767,0.0171 -1.556748,0.51169 -2.77359,1.92966 -2.85719,3.81217 -0.049,1.02339 0.311626,2.01968 0.961698,2.79517 0.144049,0.17874 0.213392,0.41512 0.151412,0.64286 l -1.265556,4.71909 h 4.296896 l 0.981852,-3.65972 c 0.06199,-0.22055 0.234842,-0.39348 0.45682,-0.47698 1.225234,-0.45115 2.214166,-1.4605 2.57452,-2.81688 h -0.0021 c 0.380514,-1.40383 -0.01268,-2.82912 -0.919324,-3.83956 -0.180184,-0.20757 -0.518913,-0.11856 -0.595313,0.14521 l -0.595312,2.22157 c -0.06199,0.23495 -0.242024,0.42225 -0.476974,0.49145 l -1.162203,0.33124 c -0.249371,0.0692 -0.511743,3.2e-4 -0.684712,-0.18707 l -0.844393,-0.8723 c -0.165669,-0.17296 -0.235096,-0.42238 -0.173116,-0.65732 l 0.595312,-2.22105 c 0.06684,-0.23587 -0.120185,-0.45095 -0.344682,-0.44494 z m -12.861747,0.22221 c -0.03447,-8.9e-4 -0.06959,0.001 -0.104904,0.008 l -10e-4,0.003 -0.580843,0.10232 c -0.149908,0.0259 -0.317523,0.16589 -0.382406,0.30283 -0.174413,0.36611 -0.515605,0.64543 -0.945162,0.72037 -0.44251,0.0778 -0.872392,-0.079 -1.160653,-0.38034 -0.111014,-0.11534 -0.279558,-0.15553 -0.436665,-0.12816 l -1.347722,0.23771 c -1.375129,0.24217 -2.652044,1.0046 -3.513997,2.24276 -0.823071,1.17044 -1.118706,2.54834 -0.939995,3.85713 0.04184,0.30413 0.455511,0.39347 0.622701,0.13539 0.605393,-0.93402 1.581197,-1.62445 2.763139,-1.83348 l 0.447001,-0.0791 c 0.282515,-0.0505 0.550552,0.13809 0.600997,0.42064 l 0.04754,0.26975 c 0.05049,0.28252 0.318481,0.4711 0.600997,0.42065 l 2.043803,-0.36019 c 0.282514,-0.0505 0.471607,-0.31847 0.421163,-0.60099 l -0.181902,-1.03198 c -0.04323,-0.24936 0.09517,-0.50147 0.335897,-0.57929 0.04757,-0.0159 0.09797,-0.0291 0.149862,-0.0377 0.429557,-0.0764 0.847584,0.0706 1.135848,0.35605 0.1081,0.10669 0.31145,0.18034 0.45992,0.15296 l 0.518832,-0.091 c 0.345939,-0.0605 0.533729,-0.33034 0.484725,-0.61288 l -0.540536,-3.06544 c -0.04413,-0.2472 -0.255339,-0.42271 -0.49661,-0.42892 z m -1.716692,7.21403 c -0.103781,0.0404 -0.213119,0.0692 -0.331246,0.0894 l -2.048453,0.36587 c -0.111,0.0129 -0.221799,0.0274 -0.325562,0.0274 h -0.0124 l 0.718819,4.06745 h 2.801379 z m 0.802535,4.55011 5.17e-4,0.003 5.17e-4,-0.003 z m -8.550899,1.3839 c -0.380532,0 -0.691948,0.31142 -0.691948,0.69194 v 2.07533 c 0,0.38053 0.31143,0.69195 0.691948,0.69195 h 3.45922 v -3.45922 z m 4.843115,0 v 3.45922 c 0,0.38198 0.309965,0.69194 0.691948,0.69194 h 1.383378 c 0.381983,0 0.691947,-0.30994 0.691947,-0.69194 v -3.45922 z m 4.151168,0 v 3.45922 h 9.686231 v -3.45922 z m 11.070126,0 v 3.45922 c 0,0.38198 0.309956,0.69194 0.691947,0.69194 h 1.383895 c 0.381977,0 0.691948,-0.30994 0.691948,-0.69194 v -3.45922 z m 4.151168,0 v 3.45922 h 3.459737 c 0.380535,0 0.691431,-0.31144 0.691431,-0.69195 v -2.07533 c 0,-0.38054 -0.310914,-0.69194 -0.691431,-0.69194 z m -24.215577,4.84311 v 6.91896 c 0,2.29041 1.860781,4.15117 4.151168,4.15117 h 19.372461 c 2.290398,0 4.151685,-1.86076 4.151685,-4.15117 v -6.91896 h -3.994588 c -0.37332,0.42811 -0.926529,0.69195 -1.542025,0.69195 h -1.383895 c -0.615496,0 -1.168705,-0.26383 -1.542025,-0.69195 H -47.73411 c -0.373319,0.42811 -0.927038,0.69195 -1.542541,0.69195 h -1.383378 c -0.615489,0 -1.16922,-0.26383 -1.542542,-0.69195 z"
       transform="translate(0.07460913,0.04201845)" /></g></svg>
