<?xml version="1.0" encoding="UTF-8" standalone="no"?>
<!-- Created with Inkscape (http://www.inkscape.org/) -->

<svg
   width="37.041672mm"
   height="37.041683mm"
   viewBox="0 0 37.041672 37.041683"
   version="1.1"
   id="svg1"
   xml:space="preserve"
   inkscape:export-filename="..\website 2.0\images\about\icons\icon-diy-active.svg"
   inkscape:export-xdpi="96"
   inkscape:export-ydpi="96"
   inkscape:version="1.3.2 (091e20e, 2023-11-25, custom)"
   sodipodi:docname="icons.svg"
   xmlns:inkscape="http://www.inkscape.org/namespaces/inkscape"
   xmlns:sodipodi="http://sodipodi.sourceforge.net/DTD/sodipodi-0.dtd"
   xmlns="http://www.w3.org/2000/svg"
   xmlns:svg="http://www.w3.org/2000/svg"><sodipodi:namedview
     id="namedview1"
     pagecolor="#ffffff"
     bordercolor="#cccccc"
     borderopacity="1"
     inkscape:showpageshadow="0"
     inkscape:pageopacity="1"
     inkscape:pagecheckerboard="0"
     inkscape:deskcolor="#d1d1d1"
     inkscape:document-units="px"
     showguides="true"
     inkscape:zoom="5.6568543"
     inkscape:cx="336.67122"
     inkscape:cy="694.99758"
     inkscape:window-width="3840"
     inkscape:window-height="2054"
     inkscape:window-x="-11"
     inkscape:window-y="-11"
     inkscape:window-maximized="1"
     inkscape:current-layer="g38"><sodipodi:guide
       position="-64.353255,211.53152"
       orientation="1,0"
       id="guide16"
       inkscape:locked="false" /><sodipodi:guide
       position="-31.866497,202.56148"
       orientation="1,0"
       id="guide17"
       inkscape:locked="false" /><sodipodi:guide
       position="-105.7934,197.81021"
       orientation="1,0"
       id="guide18"
       inkscape:locked="false" /><sodipodi:guide
       position="-73.743578,196.46485"
       orientation="1,0"
       id="guide19"
       inkscape:locked="false" /></sodipodi:namedview><defs
     id="defs1" /><g
     inkscape:label="icon-diy-active"
     inkscape:groupmode="layer"
     id="g43"
     transform="translate(60.803817,-311.79832)"
     style="fill:#000000;fill-opacity:1"
     inkscape:export-filename="icon-biker.svg"
     inkscape:export-xdpi="96"
     inkscape:export-ydpi="96"><rect
       style="fill:none;fill-opacity:1;fill-rule:evenodd;stroke-width:5.08;stroke-linecap:round;stroke-linejoin:round"
       id="rect43"
       width="37.041668"
       height="37.041668"
       x="-60.803818"
       y="-348.84"
       transform="scale(1,-1)" /><path
       id="path1"
       style="fill:#2e3141;fill-opacity:1;stroke-width:0.369002"
       d="m -41.888078,315.05612 c -0.282524,0 -0.539079,0.17134 -0.642855,0.43512 l -0.864547,2.15181 c -0.220532,0.55349 -0.193063,1.17612 0.07648,1.70945 l 0.464054,0.91416 c 0.10234,0.19458 0.151412,0.40796 0.151412,0.62993 v 7.30653 h 2.075326 v -7.30653 c 0,-0.22196 0.04763,-0.43677 0.151411,-0.62993 l 0.464055,-0.91416 h -10e-4 c 0.26955,-0.53333 0.29794,-1.15596 0.07596,-1.70945 l -0.864547,-2.15181 c -0.1038,-0.26234 -0.358895,-0.43512 -0.642855,-0.43512 z m 8.019666,1.15911 c -0.03207,8.6e-4 -0.0647,0.006 -0.09767,0.0165 -1.556747,0.51169 -2.773073,1.93018 -2.856673,3.81269 -0.049,1.02339 0.311109,2.01916 0.961182,2.79466 0.144049,0.17874 0.213392,0.41512 0.151412,0.64286 l -1.265556,4.7196 h 4.296895 l 0.981853,-3.66024 c 0.06199,-0.22055 0.234842,-0.39347 0.456819,-0.47697 1.225235,-0.45115 2.214167,-1.45999 2.57452,-2.81637 h -0.0016 c 0.380515,-1.40383 -0.0132,-2.82963 -0.919841,-3.84007 -0.180183,-0.20757 -0.518912,-0.11804 -0.595312,0.14573 l -0.595313,2.22105 c -0.06199,0.23495 -0.242023,0.42224 -0.476973,0.49144 l -1.161686,0.33176 c -0.249372,0.0692 -0.511743,-1.9e-4 -0.684713,-0.18758 l -0.84491,-0.87178 c -0.165669,-0.17296 -0.235096,-0.42239 -0.173116,-0.65733 l 0.595313,-2.22105 c 0.06684,-0.23587 -0.120186,-0.45095 -0.344682,-0.44493 z m -12.861231,0.22169 c -0.03447,-8.9e-4 -0.06959,0.002 -0.104903,0.008 l -0.0016,0.003 -0.580843,0.10232 c -0.149907,0.0259 -0.317006,0.16588 -0.381888,0.30282 -0.174413,0.36611 -0.516123,0.64595 -0.945679,0.72089 -0.442511,0.0778 -0.872392,-0.0795 -1.160653,-0.38086 -0.111015,-0.11534 -0.279558,-0.15552 -0.436666,-0.12815 l -1.347721,0.23771 c -1.37513,0.24217 -2.652045,1.00511 -3.513998,2.24327 -0.82307,1.17044 -1.118706,2.54834 -0.939994,3.85713 0.04184,0.30413 0.45551,0.39347 0.622701,0.13539 0.605392,-0.93402 1.581197,-1.62445 2.763139,-1.83348 l 0.447001,-0.0796 c 0.282515,-0.0505 0.550552,0.13861 0.600997,0.42116 l 0.04754,0.26976 c 0.05049,0.28252 0.318482,0.47109 0.600997,0.42064 l 2.04432,-0.36018 c 0.282515,-0.0505 0.471091,-0.31848 0.420646,-0.601 l -0.181384,-1.0325 c -0.04323,-0.24935 0.09517,-0.50147 0.335897,-0.57929 0.04757,-0.0159 0.09797,-0.0291 0.149861,-0.0377 0.429557,-0.0764 0.847585,0.0706 1.135848,0.35605 0.1081,0.10669 0.310934,0.18034 0.459404,0.15296 l 0.519348,-0.091 c 0.34594,-0.0605 0.533212,-0.32983 0.484208,-0.61237 l -0.540535,-3.06596 c -0.04414,-0.24719 -0.254823,-0.4227 -0.496094,-0.42891 z m -1.716691,7.21403 c -0.103782,0.0404 -0.213636,0.0692 -0.331763,0.0894 l -2.047937,0.36638 c -0.111,0.0129 -0.222315,0.0274 -0.326078,0.0274 h -0.0124 l 0.719336,4.06745 h 2.800863 z m 0.802018,4.55062 5.17e-4,0.003 5.17e-4,-0.003 z m -8.550899,1.38338 c -0.380532,0 -0.691948,0.31143 -0.691948,0.69195 v 2.07584 c 0,0.38053 0.31143,0.69195 0.691948,0.69195 h 3.45922 v -3.45974 z m 4.843115,0 v 3.45974 c 0,0.38198 0.309965,0.69195 0.691947,0.69195 h 1.383895 c 0.381983,0 0.691948,-0.30995 0.691948,-0.69195 v -3.45974 z m 4.151168,0 v 3.45974 h 9.686747 v -3.45974 z m 11.070126,0 v 3.45974 c 0,0.38198 0.309955,0.69195 0.691947,0.69195 h 1.383895 c 0.381977,0 0.691947,-0.30995 0.691947,-0.69195 v -3.45974 z m 4.151168,0 v 3.45974 h 3.459737 c 0.380534,0 0.691947,-0.31144 0.691947,-0.69195 v -2.07584 c 0,-0.38054 -0.311431,-0.69195 -0.691947,-0.69195 z m -24.215577,4.84363 v 6.91845 c 0,2.2904 1.860781,4.15116 4.151167,4.15116 h 19.372979 c 2.290398,0 4.151168,-1.86076 4.151168,-4.15116 v -6.91845 h -3.994072 c -0.373319,0.42811 -0.927045,0.69144 -1.542541,0.69144 h -1.383895 c -0.615497,0 -1.168705,-0.26332 -1.542025,-0.69144 h -10.751799 c -0.37332,0.42811 -0.926521,0.69144 -1.542025,0.69144 h -1.383895 c -0.615488,0 -1.16922,-0.26332 -1.542541,-0.69144 z"
       transform="translate(0.07460943,0.04201739)" /></g></svg>
