<?xml version="1.0" encoding="UTF-8" standalone="no"?>
<!-- Created with Inkscape (http://www.inkscape.org/) -->

<svg
   width="37.041664mm"
   height="37.041676mm"
   viewBox="0 0 37.041664 37.041676"
   version="1.1"
   id="svg1"
   xml:space="preserve"
   inkscape:export-filename="icon-biker-active.svg"
   inkscape:export-xdpi="96"
   inkscape:export-ydpi="96"
   inkscape:version="1.3.2 (091e20e, 2023-11-25, custom)"
   sodipodi:docname="icons.svg"
   xmlns:inkscape="http://www.inkscape.org/namespaces/inkscape"
   xmlns:sodipodi="http://sodipodi.sourceforge.net/DTD/sodipodi-0.dtd"
   xmlns="http://www.w3.org/2000/svg"
   xmlns:svg="http://www.w3.org/2000/svg"><sodipodi:namedview
     id="namedview1"
     pagecolor="#ffffff"
     bordercolor="#cccccc"
     borderopacity="1"
     inkscape:showpageshadow="0"
     inkscape:pageopacity="1"
     inkscape:pagecheckerboard="0"
     inkscape:deskcolor="#d1d1d1"
     inkscape:document-units="px"
     showguides="true"
     inkscape:zoom="5.6568543"
     inkscape:cx="336.67122"
     inkscape:cy="694.99758"
     inkscape:window-width="3840"
     inkscape:window-height="2054"
     inkscape:window-x="-11"
     inkscape:window-y="-11"
     inkscape:window-maximized="1"
     inkscape:current-layer="g38"><sodipodi:guide
       position="-57.376345,76.845825"
       orientation="1,0"
       id="guide16"
       inkscape:locked="false" /><sodipodi:guide
       position="-24.889587,67.875783"
       orientation="1,0"
       id="guide17"
       inkscape:locked="false" /><sodipodi:guide
       position="-98.816487,63.124512"
       orientation="1,0"
       id="guide18"
       inkscape:locked="false" /><sodipodi:guide
       position="-66.766668,61.779152"
       orientation="1,0"
       id="guide19"
       inkscape:locked="false" /></sodipodi:namedview><defs
     id="defs1" /><g
     inkscape:label="icon-dad"
     inkscape:groupmode="layer"
     id="g12"
     transform="translate(60.803817,-311.79833)"
     style="fill:#000000;fill-opacity:1"
     inkscape:export-filename="icon-dad.svg"
     inkscape:export-xdpi="96"
     inkscape:export-ydpi="96"><rect
       style="fill:none;fill-opacity:1;fill-rule:evenodd;stroke-width:5.08;stroke-linecap:round;stroke-linejoin:round"
       id="rect12"
       width="37.041668"
       height="37.041668"
       x="-60.803818"
       y="-348.84"
       transform="scale(1,-1)" /><path
       id="path12"
       style="fill:#ffffff;fill-opacity:1;stroke-width:0.241677"
       d="m -38.533989,315.73891 c -1.298939,0.002 -2.343894,0.0525 -2.343894,0.0525 v 8.72219 h 0.587325 c 0.97544,-0.71134 9.578418,-6.87435 9.548203,-6.90438 -1.010672,-1.00448 -3.301925,-1.49786 -3.92358,-1.63269 -1.01614,-0.19336 -2.569118,-0.2397 -3.868054,-0.23763 z m 9.503363,3.2163 c -2.583508,1.76543 -5.078645,3.66503 -7.594561,5.52706 l 5.105295,0.0318 c 2.807889,0.0184 5.155907,0.0387 5.217798,0.0471 0.131153,0.0184 0.125424,-0.0333 -0.11683,-1.03277 -0.261851,-1.08047 -0.721095,-2.11123 -1.362355,-3.05775 -0.394491,-0.5823 -1.12644,-1.47017 -1.249347,-1.5155 z m -29.438117,1.02435 v 2.20348 h 4.03878 c 0.05688,0.0362 0.370105,0.33658 0.791117,0.74988 1.077224,1.05749 2.860093,2.85402 2.860093,2.85402 h -5.356416 c 0,0 1.021837,9.49821 7.428552,9.49821 h 10.463496 c -4.723628,-4.72363 -10.026121,-10.10411 -15.170212,-15.30562 -0.432094,-8e-4 -5.055403,0 -5.055403,0 z m 15.014787,6.86571 c 2.976821,2.85675 6.018711,5.64357 9.051993,8.43988 h 3.568792 c 0,0 4.67293,-0.20187 4.735947,-6.76597 -0.0023,-1.82153 0,-1.67391 0,-1.67391 z m -5.582133,11.22534 c -1.96246,3e-5 -3.553339,1.52869 -3.553364,3.4144 -2.7e-5,1.88574 1.590867,3.41446 3.553364,3.41449 1.962545,4e-5 3.553515,-1.5287 3.553488,-3.41449 -2.5e-5,-1.88575 -1.590979,-3.41444 -3.553488,-3.4144 z m 16.294498,0 c -1.962459,3e-5 -3.553335,1.52869 -3.55336,3.4144 -2.7e-5,1.88574 1.590865,3.41446 3.55336,3.41449 1.962497,-3e-5 3.55339,-1.52875 3.553363,-3.41449 -2.5e-5,-1.88571 -1.590903,-3.41437 -3.553363,-3.4144 z m -11.837444,3.64797 0.0022,0.59548 0.0021,0.59548 h 3.579227 3.579351 v -0.59548 -0.59548 h -3.58139 z"
       sodipodi:nodetypes="scccscsscccccscccccsccsccccccccccssssscscscccccccccc" /></g></svg>
